# xmcd
#
# Track frame offsets:
#	182
#	19732
#	46197
#	70795
#	94922
#	112817
#	132542
#	165297
#	186870
#
# Disc length: 2926
#
# Revision: 2
# Processed by: cddbd v1.5.1PL0 Copyright (c) Steve Scherf et al.
# Submitted via: audiograbber 1.82.01
# Normalized: r1:TDELIM( - )
#
DISCID=6d0b6c09
DTITLE=Various Artist - Bob Dylan and Friends Vol.3
DYEAR=1900
DGENRE=
TTITLE0=George Harrison - If Not For You
TTITLE1=George Harrison - Absolutely Sweet Mary
TTITLE2=Tom Petty and The Heartbreakers - License To Kill
TTITLE3=Tom Petty and The Heartbreakers - Rainy Day Woman
TTITLE4=Roger Mc Guinn - Mr. Tambourine Man
TTITLE5=Bob Dylan - Song To Woody
TTITLE6=Bob Dylan - It's Allright Ma (I'm Only Bleeding
TTITLE7=Bob Dylan - My Back Pages
TTITLE8=The October 16th 1992 Madison Square Garden All Time Star Band - Kockin # On heavens Door
EXTD=
EXTT0=
EXTT1=
EXTT2=
EXTT3=
EXTT4=
EXTT5=
EXTT6=
EXTT7=
EXTT8=
PLAYORDER=
